<svg xmlns="http://www.w3.org/2000/svg" version="1.1" xmlns:xlink="http://www.w3.org/1999/xlink" viewBox="0 0 200 200"><rect width="200" height="200" fill="url('#gradient')"></rect><defs><linearGradient id="gradient" gradientTransform="rotate(45 0.5 0.5)"><stop offset="0%" stop-color="#1e1e1e"></stop><stop offset="100%" stop-color="#1e1e1e"></stop></linearGradient></defs><g><g fill="#c6da3c" transform="matrix(4.925708177445216,0,0,4.925708177445216,4.662450804613556,129.45717467272874)" stroke="#ffffff" stroke-width="0.2"><path d="M1.08-4.13L6.40-5.98L1.08-7.78L1.08-10.77L9.67-7.26L9.67-4.66L1.08-1.14L1.08-4.13ZM14.98-14.22L14.98 0L11.56 0L11.56-14.22L14.98-14.22ZM24.70-3.78L24.70-3.78Q24.70-4.53 24.17-4.95Q23.63-5.37 22.29-5.82Q20.96-6.27 20.11-6.69L20.11-6.69Q17.34-8.05 17.34-10.42L17.34-10.42Q17.34-11.60 18.03-12.50Q18.72-13.41 19.98-13.91Q21.24-14.41 22.81-14.41L22.81-14.41Q24.35-14.41 25.56-13.87Q26.78-13.32 27.45-12.31Q28.13-11.30 28.13-10L28.13-10L24.71-10Q24.71-10.87 24.17-11.35Q23.64-11.83 22.73-11.83L22.73-11.83Q21.82-11.83 21.28-11.42Q20.75-11.02 20.75-10.39L20.75-10.39Q20.75-9.84 21.34-9.40Q21.92-8.96 23.40-8.48Q24.87-8.01 25.82-7.46L25.82-7.46Q28.13-6.13 28.13-3.80L28.13-3.80Q28.13-1.93 26.72-0.87Q25.31 0.20 22.86 0.20L22.86 0.20Q21.13 0.20 19.73-0.42Q18.33-1.04 17.62-2.12Q16.91-3.20 16.91-4.61L16.91-4.61L20.35-4.61Q20.35-3.47 20.94-2.92Q21.53-2.38 22.86-2.38L22.86-2.38Q23.71-2.38 24.20-2.75Q24.70-3.12 24.70-3.78ZM37.63 0L37.63 2.45L28.81 2.45L28.81 0L37.63 0Z"></path></g></g></svg>